<?xml version="1.0" encoding="utf-8" standalone="no"?><!DOCTYPE svg PUBLIC "-//W3C//DTD SVG 20010904//EN" "http://www.w3.org/TR/2001/REC-SVG-20010904/DTD/svg10.dtd"><svg xmlns="http://www.w3.org/2000/svg" width="585" height="470" xmlns:xlink="http://www.w3.org/1999/xlink"><source><![CDATA[Device -> Gateway: uplink\nmessage
Note over Device, Gateway: Radio layer
Note over NS, Gateway:   Backhaul layer
Gateway -> NS: uplink message
Note over NS: handle uplink message
NS -> AS: uplink
Note over AS: processing uplink]]></source><desc></desc><defs><marker viewBox="0 0 5 5" markerWidth="5" markerHeight="5" orient="auto" refX="5" refY="2.5" id="markerArrowBlock"><path d="M 0 0 L 5 2.5 L 0 5 z"></path></marker><marker viewBox="0 0 9.6 16" markerWidth="4" markerHeight="16" orient="auto" refX="9.6" refY="8" id="markerArrowOpen"><path d="M 9.6,8 1.92,16 0,13.7 5.76,8 0,2.286 1.92,0 9.6,8 z"></path></marker></defs><g class="title"></g><g class="actor"><rect x="10" y="20" width="80" height="39" style="stroke-width: 2;" stroke="#000000" fill="#ffffff"></rect><text x="20" y="45" style="font-size: 16px; font-family: Andale Mono,monospace;"><tspan x="20">Device</tspan></text></g><g class="actor"><rect x="10" y="411.20000076293945" width="80" height="39" style="stroke-width: 2;" stroke="#000000" fill="#ffffff"></rect><text x="20" y="436.20000076293945" style="font-size: 16px; font-family: Andale Mono,monospace;"><tspan x="20">Device</tspan></text></g><line x1="50" x2="50" y1="59" y2="411.20000076293945" style="stroke-width: 2;" stroke="#000000" fill="none"></line><g class="actor"><rect x="110" y="20" width="90" height="39" style="stroke-width: 2;" stroke="#000000" fill="#ffffff"></rect><text x="120" y="45" style="font-size: 16px; font-family: Andale Mono,monospace;"><tspan x="120">Gateway</tspan></text></g><g class="actor"><rect x="110" y="411.20000076293945" width="90" height="39" style="stroke-width: 2;" stroke="#000000" fill="#ffffff"></rect><text x="120" y="436.20000076293945" style="font-size: 16px; font-family: Andale Mono,monospace;"><tspan x="120">Gateway</tspan></text></g><line x1="155" x2="155" y1="59" y2="411.20000076293945" style="stroke-width: 2;" stroke="#000000" fill="none"></line><g class="actor"><rect x="295" y="20" width="40" height="39" style="stroke-width: 2;" stroke="#000000" fill="#ffffff"></rect><text x="305" y="45" style="font-size: 16px; font-family: Andale Mono,monospace;"><tspan x="305">NS</tspan></text></g><g class="actor"><rect x="295" y="411.20000076293945" width="40" height="39" style="stroke-width: 2;" stroke="#000000" fill="#ffffff"></rect><text x="305" y="436.20000076293945" style="font-size: 16px; font-family: Andale Mono,monospace;"><tspan x="305">NS</tspan></text></g><line x1="315" x2="315" y1="59" y2="411.20000076293945" style="stroke-width: 2;" stroke="#000000" fill="none"></line><g class="actor"><rect x="415" y="20" width="40" height="39" style="stroke-width: 2;" stroke="#000000" fill="#ffffff"></rect><text x="425" y="45" style="font-size: 16px; font-family: Andale Mono,monospace;"><tspan x="425">AS</tspan></text></g><g class="actor"><rect x="415" y="411.20000076293945" width="40" height="39" style="stroke-width: 2;" stroke="#000000" fill="#ffffff"></rect><text x="425" y="436.20000076293945" style="font-size: 16px; font-family: Andale Mono,monospace;"><tspan x="425">AS</tspan></text></g><line x1="435" x2="435" y1="59" y2="411.20000076293945" style="stroke-width: 2;" stroke="#000000" fill="none"></line><g class="signal"><text x="67.5" y="79.89999961853027" style="font-size: 16px; font-family: Andale Mono,monospace;"><tspan x="67.5">uplink</tspan><tspan dy="1.2em" x="67.5">message</tspan></text><line x1="50" x2="155" y1="117.20000076293945" y2="117.20000076293945" style="stroke-width: 2; marker-end: url(&quot;#markerArrowBlock&quot;);" stroke="#000000" fill="none"></line></g><g class="note"><rect x="40" y="137.20000076293945" width="125" height="29" style="stroke-width: 2;" stroke="#000000" fill="#ffffff"></rect><text x="45" y="157.20000076293945" style="font-size: 16px; font-family: Andale Mono,monospace;"><tspan x="45">Radio layer</tspan></text></g><g class="note"><rect x="145" y="186.20000076293945" width="180" height="29" style="stroke-width: 2;" stroke="#000000" fill="#ffffff"></rect><text x="150" y="206.20000076293945" style="font-size: 16px; font-family: Andale Mono,monospace;"><tspan x="150">Backhaul layer</tspan></text></g><g class="signal"><text x="165" y="245.70000076293945" style="font-size: 16px; font-family: Andale Mono,monospace;"><tspan x="165">uplink message</tspan></text><line x1="155" x2="315" y1="254.20000076293945" y2="254.20000076293945" style="stroke-width: 2; marker-end: url(&quot;#markerArrowBlock&quot;);" stroke="#000000" fill="none"></line></g><g class="note"><rect x="205" y="274.20000076293945" width="220" height="29" style="stroke-width: 2;" stroke="#000000" fill="#ffffff"></rect><text x="210" y="294.20000076293945" style="font-size: 16px; font-family: Andale Mono,monospace;"><tspan x="210">handle uplink message</tspan></text></g><g class="signal"><text x="345" y="333.70000076293945" style="font-size: 16px; font-family: Andale Mono,monospace;"><tspan x="345">uplink</tspan></text><line x1="315" x2="435" y1="342.20000076293945" y2="342.20000076293945" style="stroke-width: 2; marker-end: url(&quot;#markerArrowBlock&quot;);" stroke="#000000" fill="none"></line></g><g class="note"><rect x="345" y="362.20000076293945" width="180" height="29" style="stroke-width: 2;" stroke="#000000" fill="#ffffff"></rect><text x="350" y="382.20000076293945" style="font-size: 16px; font-family: Andale Mono,monospace;"><tspan x="350">processing uplink</tspan></text></g></svg>